<?xml version="1.0" standalone="no"?>
<!DOCTYPE svg PUBLIC "-//W3C//DTD SVG 20010904//EN"
 "http://www.w3.org/TR/2001/REC-SVG-20010904/DTD/svg10.dtd">
<svg version="1.0" xmlns="http://www.w3.org/2000/svg"
 width="1278.000000pt" height="1280.000000pt" viewBox="0 0 1278.000000 1280.000000"
 preserveAspectRatio="xMidYMid meet">
<metadata>
Created by potrace 1.15, written by Peter Selinger 2001-2017
</metadata>
<g transform="translate(0.000000,1280.000000) scale(0.100000,-0.100000)"
fill="#fff" stroke="none">
<path d="M6055 12089 c-1421 -43 -2678 -544 -3720 -1484 -606 -546 -1074
-1156 -1405 -1830 -336 -686 -519 -1397 -571 -2220 -13 -214 -7 -757 10 -950
119 -1298 574 -2366 1421 -3335 138 -158 469 -487 620 -616 953 -816 1979
-1252 3250 -1381 222 -23 974 -26 1195 -5 1389 131 2510 634 3526 1585 532
498 978 1099 1285 1731 325 672 502 1365 555 2176 15 233 6 805 -15 1018 -91
886 -327 1636 -736 2342 -451 777 -1146 1509 -1925 2025 -1015 673 -2161 983
-3490 944z m-1825 -654 c0 -2 -22 -16 -49 -30 -27 -13 -134 -75 -238 -136
-1273 -757 -2180 -1683 -2737 -2796 -86 -173 -235 -524 -266 -631 -27 -87 -19
-30 15 119 147 641 404 1194 796 1710 267 351 639 721 994 990 376 285 827
531 1320 720 154 59 165 62 165 54z m148 -390 c-2 -3 -76 -46 -164 -96 -1295
-742 -2229 -1714 -2703 -2814 -65 -151 -154 -390 -166 -443 -4 -18 -9 -31 -12
-29 -7 8 35 230 73 382 164 653 508 1247 1044 1798 537 553 1085 910 1780
1158 130 46 159 55 148 44z m142 -379 c0 -2 -44 -28 -97 -56 -309 -165 -746
-455 -1037 -688 -820 -657 -1360 -1421 -1613 -2282 -48 -164 -52 -163 -23 7
109 639 375 1200 818 1722 134 157 434 448 592 574 378 301 776 523 1220 678
155 55 140 50 140 45z m146 -384 c-3 -5 -42 -31 -88 -58 -46 -26 -175 -110
-288 -185 -1172 -779 -1879 -1640 -2136 -2601 -23 -87 -24 -89 -19 -36 9 96
53 316 89 448 115 421 324 827 603 1174 130 162 407 437 573 570 141 112 385
279 530 361 143 82 378 193 540 256 85 33 164 64 175 69 26 11 27 11 21 2z
m56 -442 c-62 -33 -187 -104 -278 -159 -1040 -628 -1665 -1436 -1888 -2438
-27 -122 -31 -101 -15 82 56 647 328 1195 854 1720 310 311 658 548 1051 716
123 53 354 138 374 138 8 1 -36 -26 -98 -59z m233 -338 c-6 -5 -57 -37 -115
-72 -664 -402 -1201 -881 -1515 -1355 -195 -293 -329 -609 -384 -909 -24 -125
-26 -90 -6 69 68 524 241 960 521 1318 88 112 328 344 446 432 275 204 574
358 943 485 125 44 122 43 110 32z m174 -377 c-3 -2 -48 -30 -100 -61 -741
-445 -1252 -940 -1504 -1459 -102 -210 -159 -396 -189 -620 l-14 -100 -1 70
c-6 372 125 803 344 1130 327 488 797 843 1340 1010 109 34 133 40 124 30z
m11 -438 c-302 -167 -533 -349 -786 -618 -356 -380 -572 -799 -618 -1192 l-12
-112 -8 130 c-12 218 17 459 80 654 150 458 552 844 1134 1086 81 34 301 114
315 114 6 1 -42 -28 -105 -62z m200 -373 c-559 -300 -917 -667 -1100 -1129
-58 -145 -116 -409 -122 -545 -3 -84 -15 97 -17 245 -1 166 17 302 60 440 123
397 442 709 939 920 76 33 301 114 315 114 6 1 -28 -20 -75 -45z m1121 -104
c509 -52 936 -281 1286 -689 368 -430 517 -1032 402 -1628 -123 -640 -644
-1228 -1274 -1442 -480 -162 -1047 -126 -1483 93 -527 265 -921 767 -1031
1311 -35 174 -44 286 -38 494 11 425 123 759 361 1079 424 569 1070 853 1777
782z m-5141 -595 c0 -8 -7 -15 -15 -15 -16 0 -20 12 -8 23 11 12 23 8 23 -8z
m7065 -2335 c-21 -453 -261 -798 -717 -1030 -177 -91 -329 -146 -623 -227 -11
-3 48 29 130 70 484 244 837 580 1020 972 98 209 134 348 177 678 5 45 18
-371 13 -463z m380 19 c-84 -646 -491 -1182 -1140 -1500 -138 -67 -408 -169
-447 -169 -7 0 25 21 72 46 114 61 183 103 325 198 470 312 793 650 987 1031
114 225 171 422 205 710 8 66 8 63 11 -64 1 -80 -4 -182 -13 -252z m786 -111
c-55 -580 -268 -1044 -675 -1466 -367 -380 -761 -631 -1286 -818 -52 -19 -99
-34 -105 -34 -5 0 40 27 100 61 880 487 1515 1111 1793 1759 80 186 146 415
167 578 13 101 17 43 6 -80z m-431 -55 c-47 -260 -109 -452 -215 -672 -110
-226 -232 -397 -411 -573 -205 -202 -431 -353 -717 -480 -115 -51 -435 -163
-443 -156 -2 3 35 29 83 58 49 29 158 100 243 158 652 442 1084 888 1318 1361
69 138 135 317 148 401 4 25 9 40 11 33 2 -6 -5 -65 -17 -130z m805 -170 c-67
-315 -203 -696 -333 -933 -427 -782 -1018 -1265 -1836 -1501 -76 -22 -140 -38
-142 -36 -2 2 38 21 89 43 105 45 340 173 472 258 453 292 935 763 1270 1241
208 297 385 655 467 947 18 64 35 114 37 113 2 -2 -9 -61 -24 -132z m442 75
c-3 -8 -6 -5 -6 6 -1 11 2 17 5 13 3 -3 4 -12 1 -19z m-27 -135 c-148 -1071
-793 -1891 -1995 -2536 -148 -79 -522 -257 -542 -257 -4 0 36 24 89 54 517
292 1055 697 1400 1054 313 325 613 775 835 1253 81 175 213 497 213 520 0 7
3 10 6 6 3 -3 1 -46 -6 -94z m430 -23 c0 -5 -4 -10 -10 -10 -5 0 -10 5 -10 10
0 6 5 10 10 10 6 0 10 -4 10 -10z m-35 -166 c-82 -622 -374 -1204 -887 -1764
-457 -500 -987 -877 -1569 -1116 -115 -47 -399 -146 -399 -139 0 3 37 23 82
46 132 66 320 174 493 281 823 512 1463 1154 1886 1893 134 234 301 606 376
837 15 47 29 85 31 84 1 -2 -5 -56 -13 -122z m370 -270 c-199 -765 -581 -1412
-1176 -1989 -512 -496 -1091 -851 -1816 -1114 -46 -16 -83 -28 -83 -26 0 2 39
24 88 50 292 159 733 443 1020 659 821 618 1401 1288 1777 2051 87 177 204
453 219 519 4 15 9 26 11 24 3 -2 -15 -80 -40 -174z m452 84 c-3 -7 -5 -2 -5
12 0 14 2 19 5 13 2 -7 2 -19 0 -25z m-78 -258 c-97 -341 -188 -583 -319 -857
-371 -771 -872 -1349 -1575 -1818 -384 -255 -756 -440 -1225 -609 -242 -88
-245 -87 -75 2 429 225 707 401 1055 665 505 384 984 857 1370 1352 125 161
343 485 446 665 103 180 246 473 314 642 30 75 55 136 57 135 1 -2 -20 -81
-48 -177z"/>
<path d="M6149 6545 c-56 -18 -113 -77 -128 -132 -14 -49 -14 -137 0 -186 23
-84 107 -139 217 -141 172 -3 251 82 240 258 -9 139 -76 206 -212 213 -44 2
-89 -3 -117 -12z"/>
</g>
</svg>
