<svg version="1.1" id="Layer_1" xmlns="http://www.w3.org/2000/svg" xmlns:xlink="http://www.w3.org/1999/xlink" x="0px" y="0px"
	 width="100%" viewBox="0 0 500 500" enable-background="new 0 0 500 500" xml:space="preserve">
	<path fill="#000000" opacity="1.000000" stroke="none" 
		d="
	M235.000000,501.000000 
		C156.666687,501.000000 78.833374,501.000000 1.000042,501.000000 
		C1.000028,334.333405 1.000028,167.666779 1.000014,1.000131 
		C167.666565,1.000087 334.333130,1.000087 500.999756,1.000044 
		C500.999847,167.666519 500.999847,334.333038 500.999939,500.999786 
		C412.500000,501.000000 324.000000,501.000000 235.000000,501.000000 
	M364.671021,350.846924 
		C372.377563,361.900665 379.971588,373.036316 387.900146,383.928467 
		C389.240448,385.769745 391.986298,387.592407 394.142853,387.666138 
		C405.129059,388.041595 416.136078,387.749390 427.133362,387.888123 
		C430.984039,387.936646 432.321838,386.540375 432.316711,382.613129 
		C432.224213,311.619629 432.222748,240.625916 432.319153,169.632401 
		C432.324615,165.611725 430.801422,164.396667 427.046173,164.443924 
		C416.715424,164.573975 406.377747,164.661682 396.051392,164.412231 
		C391.279907,164.296982 389.801453,165.909607 389.820099,170.760025 
		C389.993378,215.921967 389.922638,261.084839 389.922638,306.247467 
		C389.922638,307.843994 389.922638,309.440521 389.922638,312.266602 
		C388.359833,310.178589 387.479736,309.069214 386.669617,307.910889 
		C354.442230,261.829254 322.179108,215.772522 290.079834,169.601791 
		C287.527954,165.931229 284.954681,164.204208 280.355316,164.377747 
		C270.703278,164.741959 261.027893,164.482025 251.362106,164.490631 
		C244.492828,164.496750 244.381851,164.605896 244.381454,171.446487 
		C244.378418,223.941788 244.379791,276.437073 244.379791,328.932373 
		C244.379791,330.555603 244.379791,332.178833 244.379791,333.967438 
		C258.827789,333.967438 272.752411,333.967438 287.222992,333.967438 
		C287.222992,302.940094 287.222992,272.111328 287.222992,239.820892 
		C313.467590,277.470520 338.844788,313.875793 364.671021,350.846924 
	M209.019760,316.430969 
		C195.983841,282.865234 182.957031,249.295975 169.908020,215.735336 
		C163.713974,199.804947 157.515564,183.875900 151.191788,167.996948 
		C150.655579,166.650513 148.907089,164.608215 148.152588,164.780121 
		C146.714569,165.107742 145.189560,166.581833 144.421555,167.976837 
		C143.153900,170.279358 142.478363,172.904617 141.519135,175.380646 
		C114.901909,244.086990 88.278236,312.790833 61.663532,381.498138 
		C59.469872,387.161194 59.896622,387.811432 65.920364,387.830261 
		C76.749664,387.864044 87.582146,387.694061 98.407005,387.915985 
		C102.416061,387.998199 104.312523,386.563538 105.528267,382.729309 
		C108.436127,373.558594 111.827858,364.541595 115.011909,355.458191 
		C125.807182,324.661591 136.597107,293.863068 147.767136,261.986420 
		C148.755936,264.575317 149.416183,266.204071 150.004333,267.858490 
		C163.626694,306.176758 177.307968,344.474426 190.755020,382.854187 
		C192.114197,386.733459 193.998901,387.986938 197.922379,387.911835 
		C208.747818,387.704498 219.579895,387.862274 230.409210,387.830597 
		C235.905609,387.814514 236.467926,387.031708 234.556564,382.118347 
		C226.133163,360.465363 217.686798,338.821320 209.019760,316.430969 
	z"/>
	<path fill="#FDFDFD" opacity="1.000000" stroke="none" 
		d="
	M364.446503,350.563995 
		C338.844788,313.875793 313.467590,277.470520 287.222992,239.820892 
		C287.222992,272.111328 287.222992,302.940094 287.222992,333.967438 
		C272.752411,333.967438 258.827789,333.967438 244.379791,333.967438 
		C244.379791,332.178833 244.379791,330.555603 244.379791,328.932373 
		C244.379791,276.437073 244.378418,223.941788 244.381454,171.446487 
		C244.381851,164.605896 244.492828,164.496750 251.362106,164.490631 
		C261.027893,164.482025 270.703278,164.741959 280.355316,164.377747 
		C284.954681,164.204208 287.527954,165.931229 290.079834,169.601791 
		C322.179108,215.772522 354.442230,261.829254 386.669617,307.910889 
		C387.479736,309.069214 388.359833,310.178589 389.922638,312.266602 
		C389.922638,309.440521 389.922638,307.843994 389.922638,306.247467 
		C389.922638,261.084839 389.993378,215.921967 389.820099,170.760025 
		C389.801453,165.909607 391.279907,164.296982 396.051392,164.412231 
		C406.377747,164.661682 416.715424,164.573975 427.046173,164.443924 
		C430.801422,164.396667 432.324615,165.611725 432.319153,169.632401 
		C432.222748,240.625916 432.224213,311.619629 432.316711,382.613129 
		C432.321838,386.540375 430.984039,387.936646 427.133362,387.888123 
		C416.136078,387.749390 405.129059,388.041595 394.142853,387.666138 
		C391.986298,387.592407 389.240448,385.769745 387.900146,383.928467 
		C379.971588,373.036316 372.377563,361.900665 364.446503,350.563995 
	z"/>
	<path fill="#FDFDFD" opacity="1.000000" stroke="none" 
		d="
	M209.134262,316.802490 
		C217.686798,338.821320 226.133163,360.465363 234.556564,382.118347 
		C236.467926,387.031708 235.905609,387.814514 230.409210,387.830597 
		C219.579895,387.862274 208.747818,387.704498 197.922379,387.911835 
		C193.998901,387.986938 192.114197,386.733459 190.755020,382.854187 
		C177.307968,344.474426 163.626694,306.176758 150.004333,267.858490 
		C149.416183,266.204071 148.755936,264.575317 147.767136,261.986420 
		C136.597107,293.863068 125.807182,324.661591 115.011909,355.458191 
		C111.827858,364.541595 108.436127,373.558594 105.528267,382.729309 
		C104.312523,386.563538 102.416061,387.998199 98.407005,387.915985 
		C87.582146,387.694061 76.749664,387.864044 65.920364,387.830261 
		C59.896622,387.811432 59.469872,387.161194 61.663532,381.498138 
		C88.278236,312.790833 114.901909,244.086990 141.519135,175.380646 
		C142.478363,172.904617 143.153900,170.279358 144.421555,167.976837 
		C145.189560,166.581833 146.714569,165.107742 148.152588,164.780121 
		C148.907089,164.608215 150.655579,166.650513 151.191788,167.996948 
		C157.515564,183.875900 163.713974,199.804947 169.908020,215.735336 
		C182.957031,249.295975 195.983841,282.865234 209.134262,316.802490 
	z"/>
</svg>